<svg xmlns="http://www.w3.org/2000/svg" xmlns:xlink="http://www.w3.org/1999/xlink" width="1080" zoomAndPan="magnify" viewBox="0 0 810 1012.49997" height="1350" preserveAspectRatio="xMidYMid meet" version="1.0"><defs><clipPath id="1650ac979e"><path d="M 175.132812 276.132812 L 634.867188 276.132812 L 634.867188 735.867188 L 175.132812 735.867188 Z M 175.132812 276.132812 " clip-rule="nonzero"/></clipPath><clipPath id="e7cf2d9779"><path d="M 405 276.132812 C 278.046875 276.132812 175.132812 379.046875 175.132812 506 C 175.132812 632.953125 278.046875 735.867188 405 735.867188 C 531.953125 735.867188 634.867188 632.953125 634.867188 506 C 634.867188 379.046875 531.953125 276.132812 405 276.132812 Z M 405 276.132812 " clip-rule="nonzero"/></clipPath><clipPath id="be38c99c6e"><path d="M 0.132812 0.132812 L 459.867188 0.132812 L 459.867188 459.867188 L 0.132812 459.867188 Z M 0.132812 0.132812 " clip-rule="nonzero"/></clipPath><clipPath id="4570afd6ce"><path d="M 230 0.132812 C 103.046875 0.132812 0.132812 103.046875 0.132812 230 C 0.132812 356.953125 103.046875 459.867188 230 459.867188 C 356.953125 459.867188 459.867188 356.953125 459.867188 230 C 459.867188 103.046875 356.953125 0.132812 230 0.132812 Z M 230 0.132812 " clip-rule="nonzero"/></clipPath><clipPath id="b20992d3dc"><rect x="0" width="460" y="0" height="460"/></clipPath><clipPath id="ffaf1a0c2d"><path d="M 282.070312 367.691406 L 527.925781 367.691406 L 527.925781 644 L 282.070312 644 Z M 282.070312 367.691406 " clip-rule="nonzero"/></clipPath><clipPath id="2bd17cd6b0"><path d="M 417.976562 371.355469 L 514.945312 427.421875 C 522.980469 432.066406 527.925781 440.640625 527.925781 449.917969 L 527.925781 561.636719 C 527.925781 570.914062 522.980469 579.488281 514.945312 584.132812 L 417.976562 640.199219 C 409.949219 644.839844 400.050781 644.839844 392.019531 640.199219 L 295.050781 584.132812 C 287.019531 579.488281 282.070312 570.914062 282.070312 561.636719 L 282.070312 449.917969 C 282.070312 440.640625 287.019531 432.066406 295.050781 427.421875 L 392.019531 371.355469 C 400.050781 366.714844 409.949219 366.714844 417.976562 371.355469 Z M 417.976562 371.355469 " clip-rule="nonzero"/></clipPath><clipPath id="35781683ff"><path d="M 0.0703125 0.691406 L 245.925781 0.691406 L 245.925781 277 L 0.0703125 277 Z M 0.0703125 0.691406 " clip-rule="nonzero"/></clipPath><clipPath id="c281c43d7f"><path d="M 135.976562 4.355469 L 232.945312 60.421875 C 240.980469 65.066406 245.925781 73.640625 245.925781 82.917969 L 245.925781 194.636719 C 245.925781 203.914062 240.980469 212.488281 232.945312 217.132812 L 135.976562 273.199219 C 127.949219 277.839844 118.050781 277.839844 110.019531 273.199219 L 13.050781 217.132812 C 5.019531 212.488281 0.0703125 203.914062 0.0703125 194.636719 L 0.0703125 82.917969 C 0.0703125 73.640625 5.019531 65.066406 13.050781 60.421875 L 110.019531 4.355469 C 118.050781 -0.285156 127.949219 -0.285156 135.976562 4.355469 Z M 135.976562 4.355469 " clip-rule="nonzero"/></clipPath><clipPath id="80ce92dbb3"><rect x="0" width="246" y="0" height="277"/></clipPath><clipPath id="3a1eaa16df"><path d="M 302.96875 392.898438 L 507.027344 392.898438 L 507.027344 620.871094 L 302.96875 620.871094 Z M 302.96875 392.898438 " clip-rule="nonzero"/></clipPath><clipPath id="228fd61431"><path d="M 417.976562 396.417969 L 494.050781 440.398438 C 502.082031 445.042969 507.027344 453.617188 507.027344 462.894531 L 507.027344 550.523438 C 507.027344 559.800781 502.082031 568.375 494.050781 573.019531 L 417.976562 617.003906 C 409.949219 621.644531 400.050781 621.644531 392.019531 617.003906 L 315.949219 573.019531 C 307.917969 568.375 302.96875 559.800781 302.96875 550.523438 L 302.96875 462.894531 C 302.96875 453.617188 307.917969 445.042969 315.949219 440.398438 L 392.019531 396.417969 C 400.050781 391.773438 409.949219 391.773438 417.976562 396.417969 Z M 417.976562 396.417969 " clip-rule="nonzero"/></clipPath><clipPath id="36b41f825d"><path d="M 0.96875 0.898438 L 205.027344 0.898438 L 205.027344 228.871094 L 0.96875 228.871094 Z M 0.96875 0.898438 " clip-rule="nonzero"/></clipPath><clipPath id="ebf412fbf6"><path d="M 115.976562 4.417969 L 192.050781 48.398438 C 200.082031 53.042969 205.027344 61.617188 205.027344 70.894531 L 205.027344 158.523438 C 205.027344 167.800781 200.082031 176.375 192.050781 181.019531 L 115.976562 225.003906 C 107.949219 229.644531 98.050781 229.644531 90.019531 225.003906 L 13.949219 181.019531 C 5.917969 176.375 0.96875 167.800781 0.96875 158.523438 L 0.96875 70.894531 C 0.96875 61.617188 5.917969 53.042969 13.949219 48.398438 L 90.019531 4.417969 C 98.050781 -0.226562 107.949219 -0.226562 115.976562 4.417969 Z M 115.976562 4.417969 " clip-rule="nonzero"/></clipPath><clipPath id="8b04c68beb"><rect x="0" width="206" y="0" height="229"/></clipPath></defs><g clip-path="url(#1650ac979e)"><g clip-path="url(#e7cf2d9779)"><g transform="matrix(1, 0, 0, 1, 175, 276)"><g clip-path="url(#b20992d3dc)"><g clip-path="url(#be38c99c6e)"><g clip-path="url(#4570afd6ce)"><path fill="#000000" d="M 0.132812 0.132812 L 459.867188 0.132812 L 459.867188 459.867188 L 0.132812 459.867188 Z M 0.132812 0.132812 " fill-opacity="1" fill-rule="nonzero"/></g></g></g></g></g></g><g clip-path="url(#ffaf1a0c2d)"><g clip-path="url(#2bd17cd6b0)"><g transform="matrix(1, 0, 0, 1, 282, 367)"><g clip-path="url(#80ce92dbb3)"><g clip-path="url(#35781683ff)"><g clip-path="url(#c281c43d7f)"><path fill="#ffffff" d="M 0.0703125 -3.148438 L 245.925781 -3.148438 L 245.925781 281.121094 L 0.0703125 281.121094 Z M 0.0703125 -3.148438 " fill-opacity="1" fill-rule="nonzero"/></g></g></g></g></g></g><g clip-path="url(#3a1eaa16df)"><g clip-path="url(#228fd61431)"><g transform="matrix(1, 0, 0, 1, 302, 392)"><g clip-path="url(#8b04c68beb)"><g clip-path="url(#36b41f825d)"><g clip-path="url(#ebf412fbf6)"><path fill="#000000" d="M 0.96875 -3.089844 L 205.027344 -3.089844 L 205.027344 232.855469 L 0.96875 232.855469 Z M 0.96875 -3.089844 " fill-opacity="1" fill-rule="nonzero"/></g></g></g></g></g></g></svg>